
<svg width="261" height="389" viewBox="0 0 261 389" fill="none" xmlns="http://www.w3.org/2000/svg">
<path d="M117.513 17.5784C124.317 8.7097 137.683 8.70972 144.487 17.5785L197.485 86.6516C206.065 97.834 198.092 114 183.998 114H78.0024C63.9077 114 55.9351 97.834 64.515 86.6516L117.513 17.5784Z" fill="#480000"/>
<path d="M61 97H201L261 389L201 364H61L1 389L61 97Z" fill="#989898"/>
<path d="M60 97L51.5 274.5L60 364L0 389L60 97Z" fill="#8A8A8A"/>
<path d="M201 97L209.5 274.5L201 364L261 389L201 97Z" fill="#A7A7A7"/>
<path d="M61 363H201L191 384H71L61 363Z" fill="#585858"/>
<circle cx="131" cy="152" r="25" fill="#323232"/>
<circle cx="131" cy="218" r="25" fill="#323232"/>
</svg>
