
<svg width="618" height="510" viewBox="0 0 618 510" fill="none" xmlns="http://www.w3.org/2000/svg">
<path d="M147.632 437.611C150.518 423.933 148.81 409.686 142.774 397.078C136.737 384.47 126.709 374.206 114.245 367.879C101.781 361.551 87.5766 359.513 73.8359 362.08C60.0952 364.648 47.5857 371.678 38.2476 382.08L43.1138 386.448C51.4902 377.118 62.7114 370.812 75.0371 368.509C87.3627 366.205 100.104 368.033 111.285 373.71C122.465 379.386 131.461 388.592 136.876 399.902C142.29 411.211 143.822 423.992 141.233 436.261L147.632 437.611Z" fill="black" fill-opacity="0.2"/>
<path d="M121.159 431.005C122.793 423.258 121.826 415.189 118.407 408.048C114.988 400.907 109.308 395.093 102.248 391.509C95.1886 387.925 87.1436 386.771 79.3609 388.225C71.5782 389.68 64.4929 393.661 59.2039 399.553L64.0601 403.912C68.3895 399.09 74.1891 395.831 80.5596 394.64C86.9301 393.45 93.5154 394.395 99.2942 397.328C105.073 400.262 109.722 405.021 112.521 410.866C115.32 416.711 116.111 423.317 114.773 429.658L121.159 431.005Z" fill="black" fill-opacity="0.2"/>
<path d="M107.352 428.092C108.345 423.384 107.757 418.481 105.68 414.141C103.602 409.802 100.151 406.27 95.8606 404.092C91.5708 401.914 86.6821 401.212 81.953 402.096C77.2238 402.98 72.9183 405.399 69.7044 408.979L74.1493 412.97C76.4848 410.368 79.6135 408.61 83.0502 407.968C86.4868 407.326 90.0393 407.835 93.1567 409.418C96.2741 411.001 98.7822 413.568 100.292 416.721C101.802 419.874 102.229 423.438 101.507 426.858L107.352 428.092Z" fill="black" fill-opacity="0.2"/>
<path d="M134.136 434.083C136.381 423.446 135.053 412.364 130.358 402.558C125.663 392.752 117.863 384.769 108.169 379.847C98.4743 374.926 87.4267 373.341 76.7395 375.338C66.0523 377.335 56.3227 382.802 49.0598 390.893L53.874 395.215C60.1856 388.184 68.6407 383.433 77.9279 381.697C87.2152 379.962 96.8155 381.339 105.24 385.616C113.665 389.893 120.443 396.83 124.523 405.352C128.603 413.873 129.757 423.503 127.806 432.748L134.136 434.083Z" fill="black" fill-opacity="0.2"/>
<circle cx="86.279" cy="422.966" r="8.77642" transform="rotate(26.9154 86.279 422.966)" fill="black" fill-opacity="0.2"/>
<path d="M78.8244 170.571C76.8588 163.235 72.5275 156.753 66.5023 152.129C60.4771 147.506 53.0946 145 45.5 145C37.9054 145 30.523 147.506 24.4977 152.129C18.4725 156.753 14.1412 163.235 12.1756 170.571L15.6074 171.49C17.3706 164.91 21.2558 159.095 26.6606 154.948C32.0653 150.801 38.6875 148.553 45.5 148.553C52.3125 148.553 58.9347 150.801 64.3394 154.948C69.7442 159.095 73.6294 164.91 75.3926 171.49L78.8244 170.571Z" fill="black" fill-opacity="0.1"/>
<path d="M64.3748 173.882C63.2615 169.727 60.8083 166.055 57.3956 163.436C53.9829 160.818 49.8016 159.398 45.5 159.398C41.1984 159.398 37.0171 160.818 33.6044 163.436C30.1917 166.055 27.7385 169.727 26.6252 173.882L30.05 174.799C30.9613 171.398 32.9694 168.393 35.7629 166.249C38.5563 164.106 41.979 162.944 45.5 162.944C49.0211 162.944 52.4437 164.106 55.2372 166.249C58.0306 168.393 60.0387 171.398 60.95 174.799L64.3748 173.882Z" fill="black" fill-opacity="0.1"/>
<path d="M56.9694 175.866C56.2929 173.341 54.8022 171.11 52.7284 169.519C50.6547 167.928 48.1139 167.065 45.5 167.065C42.8862 167.065 40.3453 167.928 38.2716 169.519C36.1979 171.11 34.7072 173.341 34.0306 175.866L37.1654 176.706C37.657 174.871 38.7403 173.25 40.2472 172.093C41.7542 170.937 43.6006 170.31 45.5 170.31C47.3995 170.31 49.2459 170.937 50.7528 172.093C52.2598 173.25 53.3431 174.871 53.8347 176.706L56.9694 175.866Z" fill="black" fill-opacity="0.1"/>
<path d="M71.419 172.181C69.8902 166.475 66.5214 161.434 61.8351 157.838C57.1488 154.242 51.407 152.293 45.5 152.293C39.5931 152.293 33.8512 154.242 29.1649 157.838C24.4786 161.434 21.1098 166.475 19.581 172.181L22.9762 173.091C24.3048 168.133 27.2323 163.751 31.3047 160.626C35.3771 157.501 40.3669 155.808 45.5 155.808C50.6332 155.808 55.6229 157.501 59.6953 160.626C63.7677 163.751 66.6952 168.133 68.0238 173.091L71.419 172.181Z" fill="black" fill-opacity="0.1"/>
<circle cx="45.5" cy="178.565" r="4.76829" fill="black" fill-opacity="0.1"/>
<path d="M241.074 433.167C236.818 426.877 230.606 422.167 223.4 419.767C216.195 417.368 208.399 417.413 201.221 419.896C194.044 422.379 187.887 427.16 183.704 433.499C179.521 439.838 177.547 447.38 178.088 454.956L181.631 454.703C181.147 447.908 182.917 441.142 186.669 435.456C190.421 429.77 195.945 425.48 202.383 423.253C208.821 421.026 215.814 420.986 222.278 423.138C228.741 425.291 234.314 429.516 238.132 435.158L241.074 433.167Z" fill="black" fill-opacity="0.1"/>
<path d="M228.501 441.02C226.091 437.457 222.572 434.789 218.491 433.43C214.409 432.071 209.994 432.097 205.928 433.503C201.863 434.909 198.376 437.618 196.007 441.208C193.638 444.798 192.519 449.07 192.826 453.361L196.362 453.108C196.112 449.596 197.027 446.1 198.966 443.161C200.905 440.222 203.76 438.005 207.088 436.854C210.415 435.703 214.03 435.682 217.37 436.794C220.711 437.907 223.591 440.09 225.564 443.007L228.501 441.02Z" fill="black" fill-opacity="0.1"/>
<path d="M222.151 445.316C220.686 443.151 218.548 441.53 216.068 440.704C213.588 439.878 210.905 439.894 208.435 440.748C205.965 441.603 203.845 443.249 202.406 445.43C200.966 447.612 200.287 450.208 200.473 452.815L203.71 452.584C203.575 450.689 204.068 448.803 205.115 447.218C206.161 445.632 207.701 444.436 209.496 443.815C211.291 443.194 213.241 443.183 215.043 443.783C216.845 444.383 218.399 445.561 219.463 447.135L222.151 445.316Z" fill="black" fill-opacity="0.1"/>
<path d="M234.602 437.11C231.292 432.217 226.46 428.554 220.856 426.688C215.251 424.821 209.188 424.857 203.605 426.788C198.023 428.719 193.234 432.438 189.981 437.368C186.728 442.299 185.192 448.165 185.613 454.057L189.119 453.806C188.753 448.686 190.088 443.589 192.915 439.304C195.742 435.02 199.904 431.788 204.755 430.11C209.606 428.431 214.875 428.401 219.745 430.023C224.615 431.645 228.814 434.828 231.691 439.08L234.602 437.11Z" fill="black" fill-opacity="0.1"/>
<circle cx="212.194" cy="451.616" r="4.76829" transform="rotate(-19.0818 212.194 451.616)" fill="black" fill-opacity="0.1"/>
<path d="M402.695 156.075C403.702 148.547 402.197 140.898 398.414 134.313C394.63 127.727 388.78 122.575 381.769 119.654C374.759 116.733 366.98 116.207 359.641 118.157C352.301 120.107 345.809 124.425 341.173 130.441L343.987 132.609C348.146 127.213 353.969 123.34 360.553 121.591C367.137 119.841 374.114 120.313 380.403 122.933C386.691 125.554 391.939 130.176 395.333 136.083C398.727 141.989 400.077 148.851 399.174 155.604L402.695 156.075Z" fill="black" fill-opacity="0.1"/>
<path d="M388.084 153.573C388.654 149.31 387.802 144.977 385.659 141.247C383.516 137.518 380.202 134.599 376.231 132.945C372.261 131.29 367.855 130.992 363.698 132.097C359.54 133.201 355.864 135.647 353.238 139.054L356.046 141.218C358.196 138.43 361.205 136.428 364.608 135.524C368.011 134.619 371.618 134.863 374.868 136.218C378.118 137.572 380.83 139.961 382.585 143.014C384.339 146.067 385.036 149.613 384.57 153.103L388.084 153.573Z" fill="black" fill-opacity="0.1"/>
<path d="M380.485 152.557C380.831 149.966 380.314 147.333 379.011 145.067C377.709 142.8 375.695 141.027 373.283 140.022C370.87 139.016 368.193 138.835 365.667 139.506C363.14 140.178 360.906 141.664 359.311 143.734L361.881 145.715C363.041 144.211 364.664 143.131 366.5 142.643C368.336 142.155 370.281 142.287 372.034 143.017C373.788 143.748 375.251 145.037 376.197 146.683C377.144 148.33 377.52 150.244 377.268 152.126L380.485 152.557Z" fill="black" fill-opacity="0.1"/>
<path d="M395.24 154.713C396.023 148.858 394.853 142.908 391.91 137.787C388.967 132.665 384.417 128.657 378.964 126.386C373.512 124.114 367.462 123.704 361.753 125.221C356.044 126.738 350.995 130.096 347.39 134.775L350.174 136.921C353.307 132.855 357.695 129.937 362.656 128.618C367.617 127.3 372.874 127.656 377.612 129.63C382.351 131.604 386.305 135.087 388.862 139.538C391.42 143.989 392.437 149.159 391.756 154.247L395.24 154.713Z" fill="black" fill-opacity="0.1"/>
<circle cx="368.86" cy="150.637" r="4.76829" transform="rotate(22.6199 368.86 150.637)" fill="black" fill-opacity="0.1"/>
<path d="M595.088 135.784C590.527 129.711 584.09 125.312 576.775 123.27C569.46 121.228 561.676 121.657 554.63 124.491C547.583 127.324 541.669 132.403 537.803 138.94C533.938 145.477 532.337 153.108 533.25 160.647L536.777 160.22C535.958 153.457 537.394 146.613 540.861 140.748C544.329 134.884 549.634 130.328 555.955 127.787C562.276 125.245 569.259 124.861 575.82 126.692C582.382 128.524 588.156 132.469 592.247 137.917L595.088 135.784Z" fill="black" fill-opacity="0.1"/>
<path d="M582.916 144.246C580.333 140.806 576.687 138.315 572.544 137.158C568.401 136.002 563.992 136.245 560.001 137.85C556.01 139.454 552.66 142.331 550.471 146.034C548.281 149.736 547.375 154.058 547.892 158.328L551.412 157.902C550.988 154.407 551.73 150.869 553.523 147.838C555.315 144.807 558.057 142.453 561.324 141.139C564.591 139.826 568.2 139.627 571.591 140.573C574.982 141.52 577.967 143.559 580.081 146.375L582.916 144.246Z" fill="black" fill-opacity="0.1"/>
<path d="M576.786 148.849C575.216 146.759 573.001 145.245 570.483 144.543C567.966 143.84 565.286 143.988 562.861 144.963C560.436 145.938 558.4 147.686 557.07 149.936C555.74 152.186 555.189 154.812 555.503 157.407L558.725 157.017C558.496 155.131 558.897 153.223 559.863 151.588C560.83 149.953 562.309 148.682 564.072 147.974C565.834 147.265 567.781 147.158 569.611 147.669C571.44 148.179 573.05 149.279 574.191 150.798L576.786 148.849Z" fill="black" fill-opacity="0.1"/>
<path d="M588.818 140.04C585.271 135.317 580.264 131.896 574.575 130.308C568.885 128.72 562.831 129.053 557.35 131.257C551.87 133.46 547.269 137.411 544.263 142.495C541.256 147.58 540.012 153.514 540.722 159.379L544.211 158.956C543.594 153.86 544.676 148.703 547.289 144.284C549.901 139.866 553.899 136.433 558.662 134.518C563.424 132.603 568.686 132.313 573.63 133.693C578.574 135.073 582.924 138.046 586.007 142.151L588.818 140.04Z" fill="black" fill-opacity="0.1"/>
<circle cx="567.151" cy="155.633" r="4.76829" transform="rotate(-21.9039 567.151 155.633)" fill="black" fill-opacity="0.1"/>
<path d="M421.136 424.448C416.125 418.741 409.372 414.846 401.922 413.369C394.473 411.891 386.744 412.913 379.934 416.275C373.124 419.638 367.615 425.153 364.259 431.966C360.904 438.78 359.89 446.51 361.376 453.957L364.86 453.263C363.527 446.582 364.437 439.648 367.446 433.536C370.456 427.425 375.399 422.477 381.507 419.461C387.616 416.444 394.549 415.528 401.231 416.854C407.913 418.179 413.971 421.673 418.466 426.792L421.136 424.448Z" fill="black" fill-opacity="0.1"/>
<path d="M409.646 433.815C406.808 430.582 402.982 428.376 398.763 427.539C394.544 426.702 390.166 427.281 386.309 429.185C382.452 431.09 379.331 434.214 377.431 438.073C375.53 441.932 374.956 446.31 375.798 450.528L379.275 449.835C378.586 446.382 379.056 442.798 380.612 439.639C382.167 436.481 384.722 433.923 387.879 432.364C391.036 430.805 394.619 430.332 398.073 431.017C401.527 431.702 404.658 433.508 406.981 436.154L409.646 433.815Z" fill="black" fill-opacity="0.1"/>
<path d="M403.884 438.873C402.16 436.908 399.835 435.568 397.271 435.059C394.707 434.551 392.047 434.902 389.704 436.06C387.36 437.217 385.464 439.115 384.309 441.46C383.154 443.805 382.805 446.465 383.316 449.029L386.499 448.394C386.127 446.531 386.381 444.598 387.22 442.894C388.059 441.19 389.437 439.81 391.14 438.969C392.844 438.128 394.777 437.873 396.64 438.242C398.503 438.612 400.192 439.586 401.445 441.014L403.884 438.873Z" fill="black" fill-opacity="0.1"/>
<path d="M415.209 429.171C411.312 424.732 406.059 421.703 400.265 420.553C394.471 419.404 388.459 420.199 383.163 422.814C377.867 425.429 373.581 429.719 370.971 435.018C368.362 440.318 367.573 446.33 368.729 452.123L372.176 451.435C371.172 446.401 371.857 441.176 374.125 436.571C376.393 431.966 380.117 428.238 384.719 425.966C389.322 423.693 394.546 423.002 399.581 424.001C404.616 425 409.181 427.632 412.567 431.49L415.209 429.171Z" fill="black" fill-opacity="0.1"/>
<circle cx="394.795" cy="446.371" r="4.76829" transform="rotate(-26.2799 394.795 446.371)" fill="black" fill-opacity="0.1"/>
<path d="M447.642 311.348C450.91 304.492 451.825 296.75 450.245 289.322C448.665 281.893 444.678 275.194 438.902 270.262C433.126 265.331 425.884 262.443 418.3 262.047C410.716 261.651 403.213 263.768 396.954 268.071L398.967 270.998C404.581 267.139 411.311 265.24 418.115 265.595C424.918 265.95 431.414 268.541 436.595 272.964C441.776 277.388 445.352 283.397 446.77 290.061C448.187 296.724 447.366 303.669 444.435 309.819L447.642 311.348Z" fill="black" fill-opacity="0.1"/>
<path d="M434.503 304.483C436.354 300.6 436.872 296.215 435.977 292.008C435.082 287.8 432.824 284.006 429.553 281.213C426.281 278.419 422.18 276.784 417.884 276.559C413.588 276.335 409.338 277.534 405.794 279.971L407.802 282.893C410.704 280.898 414.183 279.916 417.699 280.1C421.215 280.284 424.572 281.623 427.25 283.909C429.928 286.195 431.777 289.301 432.509 292.745C433.242 296.189 432.818 299.779 431.302 302.957L434.503 304.483Z" fill="black" fill-opacity="0.1"/>
<path d="M427.582 301.184C428.707 298.824 429.022 296.159 428.478 293.603C427.935 291.046 426.562 288.74 424.574 287.043C422.586 285.346 420.094 284.352 417.484 284.216C414.873 284.079 412.291 284.808 410.137 286.289L411.976 288.963C413.541 287.887 415.418 287.357 417.314 287.456C419.211 287.556 421.023 288.278 422.467 289.511C423.912 290.745 424.909 292.42 425.304 294.278C425.699 296.136 425.47 298.072 424.653 299.787L427.582 301.184Z" fill="black" fill-opacity="0.1"/>
<path d="M440.964 307.764C443.506 302.432 444.218 296.41 442.989 290.632C441.76 284.855 438.659 279.644 434.166 275.809C429.674 271.973 424.042 269.727 418.143 269.419C412.244 269.111 406.408 270.757 401.541 274.104L403.532 277C407.762 274.092 412.833 272.661 417.96 272.929C423.086 273.197 427.98 275.149 431.884 278.482C435.788 281.815 438.483 286.343 439.551 291.364C440.619 296.385 440 301.618 437.791 306.251L440.964 307.764Z" fill="black" fill-opacity="0.1"/>
<circle cx="417.107" cy="295.789" r="4.76829" transform="rotate(40.4909 417.107 295.789)" fill="black" fill-opacity="0.1"/>
<path d="M249.007 91.254C243.43 86.0984 236.308 82.927 228.746 82.2316C221.183 81.5362 213.602 83.3557 207.179 87.4079C200.755 91.4601 195.849 97.5186 193.22 104.644C190.591 111.769 190.386 119.562 192.638 126.815L196.031 125.762C194.011 119.256 194.195 112.265 196.553 105.874C198.911 99.4822 203.313 94.0477 209.074 90.4128C214.836 86.7779 221.636 85.1458 228.42 85.7695C235.204 86.3933 241.593 89.2381 246.595 93.8628L249.007 91.254Z" fill="black" fill-opacity="0.1"/>
<path d="M238.552 101.764C235.394 98.8438 231.36 97.0475 227.077 96.6536C222.793 96.2598 218.499 97.2903 214.861 99.5855C211.223 101.881 208.444 105.312 206.955 109.348C205.466 113.383 205.35 117.798 206.625 121.906L210.011 120.854C208.968 117.492 209.062 113.878 210.281 110.575C211.5 107.272 213.775 104.463 216.753 102.584C219.731 100.706 223.246 99.862 226.752 100.184C230.258 100.507 233.56 101.977 236.145 104.367L238.552 101.764Z" fill="black" fill-opacity="0.1"/>
<path d="M233.348 107.393C231.429 105.619 228.977 104.527 226.375 104.288C223.772 104.049 221.163 104.675 218.952 106.07C216.741 107.464 215.052 109.549 214.148 112.002C213.243 114.454 213.172 117.136 213.947 119.633L217.047 118.67C216.483 116.856 216.535 114.907 217.192 113.125C217.85 111.343 219.077 109.828 220.683 108.814C222.29 107.801 224.186 107.346 226.077 107.52C227.969 107.694 229.75 108.487 231.145 109.776L233.348 107.393Z" fill="black" fill-opacity="0.1"/>
<path d="M243.603 96.5671C239.265 92.5572 233.726 90.0906 227.844 89.5497C221.962 89.0089 216.066 90.4241 211.07 93.5758C206.074 96.7275 202.258 101.44 200.213 106.981C198.168 112.523 198.009 118.585 199.76 124.226L203.117 123.184C201.595 118.281 201.734 113.014 203.511 108.198C205.288 103.382 208.604 99.2875 212.945 96.5486C217.287 93.8098 222.411 92.58 227.522 93.05C232.634 93.52 237.448 95.6635 241.217 99.1481L243.603 96.5671Z" fill="black" fill-opacity="0.1"/>
<circle cx="225.088" cy="115.796" r="4.76829" transform="rotate(-32.2465 225.088 115.796)" fill="black" fill-opacity="0.1"/>
<path d="M227.211 353.091C227.718 345.514 225.711 337.98 221.5 331.66C217.289 325.34 211.111 320.585 203.922 318.134C196.734 315.683 188.938 315.673 181.743 318.104C174.548 320.535 168.357 325.273 164.129 331.582L167.08 333.56C170.873 327.901 176.426 323.651 182.88 321.47C189.334 319.289 196.328 319.298 202.776 321.497C209.224 323.696 214.766 327.96 218.543 333.63C222.32 339.299 224.121 346.057 223.666 352.854L227.211 353.091Z" fill="black" fill-opacity="0.1"/>
<path d="M212.466 351.562C212.753 347.27 211.616 343.003 209.231 339.423C206.846 335.843 203.347 333.15 199.276 331.762C195.204 330.374 190.788 330.368 186.713 331.745C182.638 333.122 179.131 335.805 176.737 339.379L179.682 341.353C181.642 338.428 184.513 336.231 187.848 335.104C191.184 333.977 194.799 333.982 198.131 335.118C201.464 336.254 204.328 338.459 206.281 341.389C208.233 344.319 209.164 347.812 208.929 351.325L212.466 351.562Z" fill="black" fill-opacity="0.1"/>
<path d="M204.817 351.05C204.991 348.442 204.3 345.849 202.851 343.674C201.402 341.498 199.275 339.862 196.801 339.019C194.327 338.175 191.644 338.171 189.168 339.008C186.691 339.845 184.56 341.476 183.105 343.647L185.801 345.454C186.859 343.876 188.407 342.691 190.207 342.083C192.006 341.475 193.956 341.477 195.754 342.09C197.552 342.703 199.097 343.892 200.15 345.473C201.203 347.054 201.705 348.938 201.579 350.833L204.817 351.05Z" fill="black" fill-opacity="0.1"/>
<path d="M219.682 352.226C220.077 346.332 218.515 340.473 215.24 335.557C211.965 330.641 207.16 326.943 201.569 325.037C195.978 323.13 189.914 323.122 184.318 325.013C178.722 326.904 173.906 330.589 170.618 335.496L173.538 337.453C176.396 333.189 180.58 329.986 185.443 328.343C190.306 326.7 195.576 326.707 200.434 328.364C205.293 330.02 209.469 333.234 212.315 337.506C215.161 341.778 216.518 346.869 216.175 351.991L219.682 352.226Z" fill="black" fill-opacity="0.1"/>
<circle cx="193.09" cy="349.903" r="4.76829" transform="rotate(18.828 193.09 349.903)" fill="black" fill-opacity="0.1"/>
<path d="M587.308 53.7807C579.885 41.9358 568.761 32.8711 555.661 27.9927C542.562 23.1142 528.218 22.6945 514.856 26.7987C501.494 30.9028 489.859 39.3015 481.756 50.6921C473.653 62.0827 469.536 75.8287 470.042 89.798L476.577 89.5614C476.123 77.0306 479.817 64.7002 487.085 54.4827C494.353 44.2651 504.79 36.7313 516.776 33.0498C528.762 29.3683 541.629 29.7447 553.379 34.1208C565.13 38.4969 575.108 46.628 581.766 57.2531L587.308 53.7807Z" fill="black" fill-opacity="0.2"/>
<path d="M563.673 67.4145C559.469 60.7056 553.168 55.5714 545.749 52.8083C538.329 50.0451 530.205 49.8074 522.637 52.132C515.069 54.4566 508.479 59.2136 503.889 65.6652C499.3 72.1168 496.968 79.9024 497.254 87.8146L503.776 87.5784C503.541 81.1019 505.451 74.7289 509.207 69.448C512.964 64.167 518.358 60.2732 524.553 58.3704C530.748 56.4676 537.398 56.6622 543.471 58.924C549.545 61.1858 554.702 65.3883 558.143 70.8799L563.673 67.4145Z" fill="black" fill-opacity="0.2"/>
<path d="M551.716 74.9077C549.161 70.831 545.333 67.7112 540.824 66.0321C536.316 64.3531 531.379 64.2086 526.78 65.6212C522.181 67.0337 518.177 69.9243 515.388 73.8447C512.599 77.765 511.182 82.496 511.356 87.3039L517.325 87.0877C517.199 83.5939 518.229 80.1559 520.255 77.3071C522.282 74.4582 525.192 72.3576 528.534 71.3312C531.876 70.3047 535.463 70.4097 538.74 71.6298C542.016 72.8499 544.798 75.1171 546.654 78.0795L551.716 74.9077Z" fill="black" fill-opacity="0.2"/>
<path d="M575.148 60.6158C569.375 51.4031 560.723 44.3529 550.534 40.5585C540.346 36.7641 529.19 36.4377 518.797 39.6298C508.404 42.822 499.355 49.3543 493.053 58.2136C486.751 67.073 483.548 77.7643 483.941 88.6293L490.407 88.3952C490.065 78.9534 492.848 69.6626 498.324 61.9638C503.801 54.2649 511.665 48.5883 520.697 45.8143C529.728 43.0403 539.423 43.324 548.277 46.6214C557.131 49.9187 564.649 56.0454 569.666 64.0513L575.148 60.6158Z" fill="black" fill-opacity="0.2"/>
<circle cx="532.995" cy="85.855" r="8.77642" transform="rotate(-17.074 532.995 85.855)" fill="black" fill-opacity="0.2"/>
<path d="M385.437 66.8652C379.856 54.0491 370.202 43.4328 357.973 36.6626C345.743 29.8925 331.621 27.3469 317.797 29.4208C303.973 31.4946 291.22 38.0719 281.516 48.1326C271.811 58.1933 265.697 71.1752 264.122 85.0647L270.62 85.8014C272.033 73.3422 277.517 61.6973 286.222 52.6726C294.927 43.648 306.367 37.748 318.767 35.8878C331.168 34.0275 343.835 36.3109 354.805 42.3838C365.776 48.4568 374.436 57.9798 379.442 69.4761L385.437 66.8652Z" fill="black" fill-opacity="0.2"/>
<path d="M360.04 76.8372C356.879 69.5783 351.411 63.5652 344.484 59.7306C337.557 55.896 329.559 54.4543 321.729 55.6289C313.899 56.8035 306.676 60.5288 301.179 66.2272C295.682 71.9255 292.22 79.2784 291.328 87.1453L297.812 87.8805C298.542 81.441 301.377 75.4223 305.876 70.7579C310.375 66.0935 316.288 63.0441 322.697 62.0827C329.106 61.1212 335.653 62.3014 341.323 65.4402C346.993 68.579 351.469 73.5009 354.057 79.4428L360.04 76.8372Z" fill="black" fill-opacity="0.2"/>
<path d="M347.102 82.4712C345.182 78.0602 341.859 74.4064 337.65 72.0763C333.441 69.7462 328.58 68.8701 323.823 69.5838C319.065 70.2976 314.675 72.5613 311.335 76.0239C307.995 79.4866 305.891 83.9546 305.349 88.735L311.284 89.4079C311.678 85.934 313.207 82.6872 315.634 80.1709C318.062 77.6547 321.251 76.0096 324.709 75.4909C328.166 74.9723 331.698 75.6089 334.757 77.3022C337.816 78.9954 340.23 81.6507 341.626 84.856L347.102 82.4712Z" fill="black" fill-opacity="0.2"/>
<path d="M372.398 71.8184C368.057 61.8504 360.548 53.5932 351.036 48.3276C341.524 43.0619 330.541 41.082 319.789 42.695C309.037 44.308 299.118 49.4237 291.57 57.2487C284.021 65.0737 279.266 75.1706 278.041 85.9736L284.47 86.7024C285.534 77.3146 289.667 68.5402 296.226 61.7403C302.785 54.9403 311.405 50.4947 320.749 49.093C330.092 47.6913 339.637 49.4119 347.903 53.9878C356.169 58.5637 362.694 65.7392 366.466 74.4015L372.398 71.8184Z" fill="black" fill-opacity="0.2"/>
<circle cx="326.963" cy="90.5162" r="8.77642" transform="rotate(-8.53183 326.963 90.5162)" fill="black" fill-opacity="0.2"/>
<path d="M525.144 230.095C528.909 216.633 528.127 202.305 522.919 189.333C517.711 176.361 508.368 165.47 496.34 158.349C484.311 151.228 470.269 148.275 456.391 149.948C442.513 151.621 429.574 157.827 419.583 167.602L424.156 172.277C433.119 163.508 444.725 157.941 457.173 156.44C469.622 154.939 482.218 157.588 493.008 163.976C503.798 170.363 512.179 180.133 516.851 191.769C521.523 203.405 522.224 216.258 518.847 228.334L525.144 230.095Z" fill="black" fill-opacity="0.2"/>
<path d="M499.154 221.79C501.287 214.165 500.844 206.05 497.894 198.703C494.944 191.355 489.652 185.187 482.839 181.153C476.026 177.12 468.073 175.447 460.212 176.395C452.352 177.343 445.024 180.858 439.365 186.395L443.928 191.059C448.561 186.527 454.559 183.65 460.993 182.874C467.428 182.099 473.938 183.468 479.515 186.769C485.092 190.071 489.423 195.12 491.838 201.134C494.252 207.148 494.615 213.791 492.869 220.032L499.154 221.79Z" fill="black" fill-opacity="0.2"/>
<path d="M485.564 217.989C486.86 213.356 486.591 208.425 484.799 203.96C483.006 199.495 479.791 195.747 475.651 193.296C471.511 190.845 466.678 189.829 461.901 190.405C457.125 190.981 452.672 193.117 449.233 196.481L453.41 200.751C455.909 198.306 459.145 196.754 462.616 196.335C466.087 195.917 469.599 196.655 472.608 198.436C475.616 200.217 477.953 202.941 479.256 206.186C480.558 209.43 480.754 213.014 479.812 216.38L485.564 217.989Z" fill="black" fill-opacity="0.2"/>
<path d="M511.905 225.702C514.834 215.231 514.226 204.087 510.175 193.998C506.124 183.908 498.858 175.438 489.502 169.899C480.146 164.36 469.224 162.064 458.43 163.365C447.636 164.666 437.573 169.493 429.802 177.096L434.327 181.721C441.08 175.113 449.825 170.919 459.205 169.788C468.585 168.657 478.076 170.653 486.206 175.466C494.336 180.279 500.651 187.641 504.171 196.408C507.691 205.176 508.22 214.86 505.675 223.959L511.905 225.702Z" fill="black" fill-opacity="0.2"/>
<circle cx="464.868" cy="211.51" r="8.77642" transform="rotate(30.6256 464.868 211.51)" fill="black" fill-opacity="0.2"/>
<path d="M331.755 219.051C331.031 205.091 325.721 191.76 316.648 181.126C307.575 170.492 295.247 163.149 281.576 160.235C267.904 157.322 253.653 159.001 241.033 165.012C228.413 171.023 218.13 181.031 211.777 193.482L217.602 196.454C223.3 185.285 232.525 176.308 243.846 170.916C255.166 165.524 267.949 164.017 280.213 166.631C292.476 169.244 303.535 175.831 311.673 185.37C319.812 194.909 324.575 206.867 325.225 219.389L331.755 219.051Z" fill="black" fill-opacity="0.2"/>
<path d="M304.474 219.467C304.063 211.561 301.056 204.01 295.917 197.987C290.778 191.964 283.796 187.805 276.052 186.154C268.309 184.504 260.237 185.455 253.089 188.86C245.941 192.265 240.117 197.933 236.518 204.986L242.332 207.951C245.277 202.178 250.045 197.539 255.896 194.752C261.746 191.965 268.354 191.186 274.692 192.537C281.03 193.888 286.746 197.292 290.952 202.223C295.159 207.153 297.621 213.333 297.956 219.805L304.474 219.467Z" fill="black" fill-opacity="0.2"/>
<path d="M290.381 220.198C290.132 215.394 288.305 210.806 285.182 207.146C282.059 203.486 277.816 200.958 273.111 199.956C268.406 198.953 263.501 199.531 259.157 201.6C254.814 203.669 251.275 207.113 249.088 211.398L254.409 214.113C255.998 210.999 258.57 208.496 261.726 206.992C264.882 205.489 268.447 205.069 271.866 205.798C275.285 206.526 278.369 208.363 280.638 211.023C282.907 213.682 284.235 217.016 284.416 220.508L290.381 220.198Z" fill="black" fill-opacity="0.2"/>
<path d="M317.807 219.109C317.243 208.251 313.113 197.883 306.057 189.612C299 181.341 289.411 175.629 278.778 173.363C268.145 171.097 257.061 172.403 247.245 177.078C237.43 181.754 229.431 189.537 224.49 199.222L230.253 202.162C234.547 193.746 241.498 186.982 250.027 182.919C258.557 178.856 268.189 177.721 277.43 179.691C286.67 181.66 295.003 186.623 301.135 193.811C307.267 200.998 310.856 210.008 311.346 219.444L317.807 219.109Z" fill="black" fill-opacity="0.2"/>
<circle cx="268.699" cy="220.657" r="8.77642" transform="rotate(12.0302 268.699 220.657)" fill="black" fill-opacity="0.2"/>
<path d="M584.286 356.121C575.647 345.131 563.624 337.298 550.08 333.838C536.537 330.378 522.23 331.483 509.379 336.983C496.528 342.483 485.85 352.069 479.003 364.256C472.155 376.442 469.52 390.548 471.506 404.384L477.979 403.455C476.198 391.043 478.561 378.391 484.704 367.459C490.846 356.528 500.424 347.928 511.952 342.995C523.479 338.062 536.313 337.07 548.462 340.174C560.61 343.278 571.396 350.304 579.144 360.162L584.286 356.121Z" fill="black" fill-opacity="0.2"/>
<path d="M562.232 372.187C557.34 365.962 550.53 361.526 542.859 359.566C535.188 357.606 527.084 358.232 519.805 361.347C512.527 364.462 506.479 369.892 502.601 376.794C498.722 383.697 497.23 391.686 498.355 399.523L504.814 398.596C503.893 392.181 505.115 385.641 508.29 379.991C511.465 374.341 516.415 369.897 522.373 367.347C528.331 364.797 534.964 364.285 541.243 365.889C547.522 367.493 553.097 371.124 557.102 376.22L562.232 372.187Z" fill="black" fill-opacity="0.2"/>
<path d="M551.138 380.907C548.165 377.124 544.027 374.429 539.366 373.238C534.704 372.047 529.78 372.427 525.357 374.32C520.934 376.213 517.259 379.512 514.903 383.707C512.546 387.901 511.639 392.756 512.322 397.518L518.235 396.669C517.738 393.209 518.397 389.681 520.11 386.633C521.823 383.585 524.493 381.187 527.707 379.812C530.921 378.436 534.5 378.16 537.887 379.025C541.274 379.891 544.281 381.85 546.442 384.598L551.138 380.907Z" fill="black" fill-opacity="0.2"/>
<path d="M572.921 364.208C566.202 355.66 556.85 349.569 546.317 346.877C535.783 344.186 524.655 345.046 514.66 349.323C504.664 353.601 496.36 361.057 491.034 370.535C485.708 380.014 483.659 390.985 485.203 401.746L491.607 400.827C490.265 391.475 492.046 381.941 496.674 373.705C501.302 365.468 508.519 358.988 517.205 355.271C525.891 351.554 535.561 350.807 544.715 353.146C553.869 355.484 561.996 360.778 567.834 368.206L572.921 364.208Z" fill="black" fill-opacity="0.2"/>
<circle cx="533.685" cy="393.78" r="8.77642" transform="rotate(-23.1684 533.685 393.78)" fill="black" fill-opacity="0.2"/>
<path d="M379.193 354.36C372.652 342.006 362.217 332.157 349.507 326.338C336.797 320.519 322.523 319.057 308.897 322.178C295.271 325.299 283.056 332.829 274.146 343.6C265.236 354.371 260.13 367.781 259.618 381.75L266.153 381.99C266.612 369.459 271.193 357.43 279.185 347.768C287.177 338.107 298.135 331.352 310.357 328.553C322.579 325.753 335.384 327.064 346.785 332.284C358.186 337.503 367.547 346.339 373.414 357.42L379.193 354.36Z" fill="black" fill-opacity="0.2"/>
<path d="M354.63 366.238C350.925 359.241 345.015 353.662 337.816 350.367C330.617 347.071 322.532 346.243 314.814 348.011C307.097 349.778 300.178 354.043 295.132 360.144C290.085 366.245 287.193 373.84 286.903 381.752L293.424 381.991C293.662 375.514 296.029 369.297 300.16 364.304C304.291 359.31 309.954 355.819 316.271 354.372C322.588 352.925 329.207 353.603 335.099 356.3C340.992 358.998 345.83 363.565 348.862 369.292L354.63 366.238Z" fill="black" fill-opacity="0.2"/>
<path d="M342.159 372.842C339.908 368.59 336.316 365.2 331.942 363.197C327.567 361.194 322.654 360.691 317.965 361.765C313.275 362.84 309.071 365.431 306.005 369.138C302.938 372.845 301.18 377.461 301.004 382.269L306.974 382.487C307.102 378.993 308.379 375.64 310.607 372.946C312.836 370.252 315.891 368.369 319.299 367.588C322.706 366.807 326.277 367.173 329.456 368.628C332.634 370.084 335.244 372.547 336.88 375.637L342.159 372.842Z" fill="black" fill-opacity="0.2"/>
<path d="M366.569 360.292C361.481 350.684 353.365 343.023 343.48 338.497C333.594 333.972 322.492 332.835 311.894 335.262C301.296 337.69 291.796 343.546 284.866 351.924C277.936 360.301 273.964 370.731 273.566 381.596L280.031 381.833C280.377 372.391 283.829 363.327 289.851 356.047C295.873 348.767 304.129 343.678 313.338 341.568C322.548 339.459 332.196 340.447 340.787 344.38C349.377 348.313 356.43 354.97 360.851 363.32L366.569 360.292Z" fill="black" fill-opacity="0.2"/>
<circle cx="322.691" cy="382.398" r="8.77642" transform="rotate(-12.9018 322.691 382.398)" fill="black" fill-opacity="0.2"/>
<path d="M155.723 99.9567C158.835 86.3291 157.364 72.0553 151.538 59.349C145.711 46.6426 135.855 36.2139 123.497 29.6803C111.14 23.1466 96.9715 20.8732 83.1901 23.2125C69.4087 25.5519 56.7843 32.3733 47.2749 42.6188L52.0679 47.0674C60.598 37.877 71.9223 31.7581 84.2844 29.6596C96.6466 27.5612 109.356 29.6005 120.441 35.4613C131.526 41.3221 140.367 50.6769 145.594 62.0747C150.82 73.4725 152.14 86.2764 149.348 98.5006L155.723 99.9567Z" fill="black" fill-opacity="0.2"/>
<path d="M129.363 92.9129C131.126 85.1943 130.293 77.1096 126.992 69.9128C123.692 62.716 118.11 56.8093 111.11 53.1086C104.111 49.408 96.0863 48.1203 88.2805 49.4453C80.4748 50.7703 73.3244 54.6339 67.9383 60.4369L72.7216 64.8765C77.1303 60.1264 82.9833 56.9639 89.3727 55.8793C95.7621 54.7947 102.331 55.8487 108.06 58.8779C113.789 61.9071 118.359 66.742 121.06 72.633C123.762 78.524 124.444 85.1417 123.001 91.4597L129.363 92.9129Z" fill="black" fill-opacity="0.2"/>
<path d="M115.606 89.7707C116.677 85.0805 116.171 80.1678 114.166 75.7946C112.16 71.4214 108.768 67.8322 104.515 65.5834C100.262 63.3347 95.3853 62.5523 90.6421 63.3574C85.8989 64.1626 81.5539 66.5103 78.281 70.0365L82.6591 74.1C85.0375 71.5376 88.1949 69.8315 91.6417 69.2464C95.0885 68.6613 98.6321 69.2299 101.723 70.864C104.814 72.4981 107.279 75.1064 108.736 78.2844C110.193 81.4623 110.561 85.0323 109.783 88.4406L115.606 89.7707Z" fill="black" fill-opacity="0.2"/>
<path d="M142.288 96.206C144.709 85.6068 143.564 74.5049 139.033 64.6222C134.501 54.7395 126.835 46.6283 117.223 41.5466C107.612 36.4649 96.5922 34.6966 85.8733 36.5161C75.1545 38.3356 65.3355 43.6411 57.9393 51.6099L62.6812 56.0111C69.1085 49.0862 77.6413 44.4757 86.956 42.8945C96.2708 41.3134 105.847 42.85 114.199 47.266C122.552 51.6821 129.214 58.7308 133.152 67.3189C137.09 75.907 138.084 85.5546 135.98 94.7654L142.288 96.206Z" fill="black" fill-opacity="0.2"/>
<circle cx="94.6213" cy="84.2957" r="8.77642" transform="rotate(27.866 94.6213 84.2957)" fill="black" fill-opacity="0.2"/>
<path d="M168.214 252.35C161.659 240.004 151.212 230.167 138.495 224.363C125.779 218.559 111.502 217.114 97.8803 220.251C84.2583 223.388 72.0521 230.932 63.1548 241.713C54.2575 252.495 49.1663 265.911 48.6709 279.88L55.2061 280.112C55.6505 267.581 60.2174 255.547 68.1985 245.876C76.1795 236.205 87.1287 229.437 99.3478 226.623C111.567 223.809 124.373 225.106 135.78 230.312C147.188 235.518 156.558 244.342 162.439 255.417L168.214 252.35Z" fill="black" fill-opacity="0.2"/>
<path d="M143.665 264.257C139.951 257.264 134.035 251.692 126.832 248.405C119.629 245.118 111.543 244.299 103.828 246.076C96.1123 247.853 89.1988 252.126 84.1594 258.232C79.12 264.339 76.2363 271.938 75.9557 279.85L82.4776 280.081C82.7073 273.605 85.0677 267.385 89.1927 262.386C93.3177 257.388 98.9768 253.89 105.292 252.436C111.608 250.981 118.227 251.651 124.122 254.342C130.018 257.033 134.861 261.594 137.901 267.318L143.665 264.257Z" fill="black" fill-opacity="0.2"/>
<path d="M131.202 270.875C128.945 266.626 125.35 263.24 120.973 261.243C116.596 259.245 111.683 258.748 106.995 259.827C102.306 260.907 98.1052 263.503 95.043 267.214C91.9808 270.925 90.2285 275.542 90.058 280.35L96.0275 280.562C96.1514 277.068 97.4247 273.713 99.65 271.016C101.875 268.32 104.928 266.433 108.335 265.648C111.742 264.864 115.313 265.225 118.493 266.677C121.674 268.128 124.286 270.589 125.926 273.676L131.202 270.875Z" fill="black" fill-opacity="0.2"/>
<path d="M155.597 258.297C150.498 248.695 142.373 241.043 132.482 236.529C122.591 232.015 111.488 230.891 100.893 233.331C90.2978 235.771 80.8041 241.639 73.884 250.024C66.9638 258.41 63.004 268.844 62.6187 279.71L69.0843 279.939C69.4191 270.497 72.8602 261.429 78.8739 254.142C84.8875 246.855 93.1376 241.756 102.345 239.636C111.552 237.515 121.201 238.492 129.796 242.415C138.391 246.338 145.452 252.987 149.883 261.331L155.597 258.297Z" fill="black" fill-opacity="0.2"/>
<circle cx="111.745" cy="280.454" r="8.77642" transform="rotate(-12.9688 111.745 280.454)" fill="black" fill-opacity="0.2"/>
</svg>
